<?xml version="1.0" encoding="utf-8"?>
<?xml-stylesheet type="text/xsl" href="rss1.xsl"?>
<rss version="2.0" xmlns:atom="http://www.w3.org/2005/Atom" xmlns:content="http://purl.org/rss/1.0/modules/content/" xmlns:dc="http://purl.org/dc/elements/1.1/" xmlns:media="http://search.yahoo.com/mrss/">
<channel>
 <title>Getty</title>
 <link>http://www.gettyimg.com/</link>
 <atom:link href="http://www.gettyimg.com/" rel="self" type="application/rss+xml" />

 
                <item>
                <title><![CDATA[【Cinema Center】SERIES - Dance Moms: Abby's Studio Rescue - Season 1 - 1080p Disney+ WEB-DL AAC2.0 H.264-LAZY]]></title>
                <link><![CDATA[https://sharemania.us/threads/dance-moms-abbys-studio-rescue-season-1-1080p-disney-web-dl-aac2-0-h-264-lazy.243589/]]></link>
                <description><![CDATA[<article>
<blockquote class="messageText SelectQuoteContainer ugc baseHtml">
Dance Moms: Abby's Studio Rescue:<img src="https://artworks.thetvdb.com/banners/v4/series/281165/banners/663029f30bf3a.jpg" class="bbCodeImage LbImage" alt="[​IMG]" data-url="https://artworks.thetvdb.com/banners/v4/series/281165/banners/663029f30bf3a.jpg" style=""> <br>
<br>
<div class="bbCodeBlock bbCodeQuote">
<aside>
<blockquote class="quoteContainer"><div class="quote"><i><b>Synopsis:</b></i><br>
Renowned dance coach and "Dance Moms" star, Abby Lee Miller is on the road, looking to transform dance studios on the brink of disaster in the all-new series, "Abby’s Studio Rescue". Each week, the show follows Abby as she dishes her tough love and no-nonsense advice while giving dance studios a second chance to finally bring home the gold.</div><div class="quoteExpand">Click to expand...</div></blockquote>
</aside>
</div>
<div class="ToggleTriggerAnchor bbCodeSpoilerContainer">
<button type="button" class="button bbCodeSpoilerButton ToggleTrigger Tooltip JsOnly" data-target="> .SpoilerTarget"><span>Spoiler: <span class="SpoilerTitle">MediaInfo</span></span></button>
<div class="SpoilerTarget bbCodeSpoilerText">General<br>
Unique ID : 3152968816153373616594293784930058308 (0x25F3D5D59E2579309D6F1AF57BA8044)<br>
Complete name : Dance.Moms.Abbys.Studio.Rescue.S01E01.Abby.to.the.Rescue.1080p.DSNP.WEB-DL.AAC2.0.H.264-LAZY.mkv<br>
Format : Matroska<br>
Format version : Version 4<br>
File size : 2.08 GiB<br>
Duration : 39 min 41 s<br>
Overall bit rate mode : Variable<br>
Overall bit rate : 7 510 kb/s<br>
Encoded date : UTC 2024-04-29 16:03:52<br>
Writing application : mkvmerge v83.0 ('Circle Of Friends') 64-bit<br>
Writing library : libebml v1.4.5 + libmatroska v1.7.1<br>
<br>
Video<br>
ID : 1<br>
Format : AVC<br>
Format/Info : Advanced Video Codec<br>
Format profile : High@L4<br>
Format settings : CABAC / 4 Ref Frames<br>
Format settings, CABAC : Yes<br>
Format settings, Reference frames : 4 frames<br>
Codec ID : V_MPEG4/ISO/AVC<br>
Duration : 39 min 41 s<br>
Bit rate mode : Variable<br>
Bit rate : 7 382 kb/s<br>
Maximum bit rate : 12.7 Mb/s<br>
Width : 1 920 pixels<br>
Height : 1 080 pixels<br>
Display aspect ratio : 16:9<br>
Frame rate mode : Constant<br>
Frame rate : 29.970 (30000/1001) FPS<br>
Color space : YUV<br>
Chroma subsampling : 4:2:0<br>
Bit depth : 8 bits<br>
Scan type : Progressive<br>
Bits/(Pixel*Frame) : 0.119<br>
Stream size : 2.05 GiB (98%)<br>
Default : Yes<br>
Forced : No<br>
Color range : Limited<br>
Color primaries : BT.709<br>
Transfer characteristics : BT.709<br>
Matrix coefficients : BT.709<br>
<br>
Audio<br>
ID : 2<br>
Format : AAC LC<br>
Format/Info : Advanced Audio Codec Low Complexity<br>
Codec ID : A_AAC-2<br>
Duration : 39 min 41 s<br>
Bit rate : 125 kb/s<br>
Channel(s) : 2 channels<br>
Channel layout : L R<br>
Sampling rate : 48.0 kHz<br>
Frame rate : 46.875 FPS (1024 SPF)<br>
Compression mode : Lossy<br>
Stream size : 35.6 MiB (2%)<br>
Language : English<br>
Default : Yes<br>
Forced : No<br>
<br>
Text<br>
ID : 3<br>
Format : UTF-8<br>
Codec ID : S_TEXT/UTF8<br>
Codec ID/Info : UTF-8 Plain Text<br>
Duration : 39 min 39 s<br>
Bit rate : 108 b/s<br>
Count of elements : 868<br>
Stream size : 31.4 KiB (0%)<br>
Title : SDH<br>
Language : English<br>
Default : No<br>
Forced : No<br>
<br>
Menu<br>
00:00:00.000 : en:Scene 1<br>
00:01:17.578 : en:Intro<br>
00:01:38.899 : en:Scene 2 / en:intro_end<br>
00:12:52.673 : en:Scene 3<br>
00:20:11.144 : en:Scene 4<br>
00:25:39.206 : en:Scene 5<br>
00:32:08.529 : en:Scene 6<br>
00:35:50.651 : en:Scene 7<br>
00:38:43.357 : en:Credits</div>
</div><br>
Screenshots:<br>
<img src="https://ptpimg.me/0dcb4t.jpg" class="bbCodeImage LbImage" alt="[​IMG]" data-url="https://ptpimg.me/0dcb4t.jpg" style=""> <br>
<br>
<div class="bbCodeBlock bbCodeVfcHH HiddenContent">
<div class="attribution type">Hidden Content:</div>
<blockquote>You must either reply or click 'Like' to see the hidden information contained here.</blockquote>
</div>
<div class="messageTextEndMarker">&nbsp;</div>
</blockquote>
</article>]]></description>
                <author><![CDATA[LazyRips]]></author>
                </item>

                
                <item>
                <title><![CDATA[【Cinema Center】SERIES - Abby's Ultimate Dance Competition - Season 1 - 1080p Disney+ WEB-DL AAC2.0 H.264-LAZY]]></title>
                <link><![CDATA[https://sharemania.us/threads/abbys-ultimate-dance-competition-season-1-1080p-disney-web-dl-aac2-0-h-264-lazy.243590/]]></link>
                <description><![CDATA[<article>
<blockquote class="messageText SelectQuoteContainer ugc baseHtml">
Abby's Ultimate Dance Competition:<img src="http:////cdn2.broadcasthe.net/tvdb/banners/graphical/261287-g.jpg" class="bbCodeImage LbImage" alt="[​IMG]" data-url="http:////cdn2.broadcasthe.net/tvdb/banners/graphical/261287-g.jpg" style=""> <br>
<br>
<div class="bbCodeBlock bbCodeQuote">
<aside>
<blockquote class="quoteContainer"><div class="quote"><i><b>Synopsis:</b></i><br>
Lifetime has picked-up the reality series Abby's Ultimate Dance Competition, headlined by Dance Moms' Abby Lee Miller, which will feature 12 of the country's most talented girl and boy dancers competing for a $100,000 cash prize and a scholarship to the Young Dancer Program at the Joffrey Ballet School in New York. Joining Miller at the judges table will be Robin Antin, founder of the pop group sensation Pussycat Dolls, and dancer and cutting-edge celebrity choreographer Richard Jackson. Kevin Manno will host.</div><div class="quoteExpand">Click to expand...</div></blockquote>
</aside>
</div>
<div class="ToggleTriggerAnchor bbCodeSpoilerContainer">
<button type="button" class="button bbCodeSpoilerButton ToggleTrigger Tooltip JsOnly" data-target="> .SpoilerTarget"><span>Spoiler: <span class="SpoilerTitle">MediaInfo</span></span></button>
<div class="SpoilerTarget bbCodeSpoilerText">General<br>
Unique ID : 48924002786026145607325965503098239261 (0x24CE6B91FF4323C1E9B983020DEFB91D)<br>
Complete name : Abbys.Ultimate.Dance.Competition.S01E01.Let.the.Dancing.Begin.1080p.DSNP.WEB-DL.AAC2.0.H.264-LAZY.mkv<br>
Format : Matroska<br>
Format version : Version 4<br>
File size : 2.15 GiB<br>
Duration : 41 min 28 s<br>
Overall bit rate mode : Variable<br>
Overall bit rate : 7 428 kb/s<br>
Encoded date : UTC 2024-04-30 18:17:23<br>
Writing application : mkvmerge v83.0 ('Circle Of Friends') 64-bit<br>
Writing library : libebml v1.4.5 + libmatroska v1.7.1<br>
<br>
Video<br>
ID : 1<br>
Format : AVC<br>
Format/Info : Advanced Video Codec<br>
Format profile : High@L4<br>
Format settings : CABAC / 4 Ref Frames<br>
Format settings, CABAC : Yes<br>
Format settings, Reference frames : 4 frames<br>
Codec ID : V_MPEG4/ISO/AVC<br>
Duration : 41 min 28 s<br>
Bit rate mode : Variable<br>
Bit rate : 7 300 kb/s<br>
Maximum bit rate : 12.7 Mb/s<br>
Width : 1 920 pixels<br>
Height : 1 080 pixels<br>
Display aspect ratio : 16:9<br>
Frame rate mode : Constant<br>
Frame rate : 23.976 (24000/1001) FPS<br>
Color space : YUV<br>
Chroma subsampling : 4:2:0<br>
Bit depth : 8 bits<br>
Scan type : Progressive<br>
Bits/(Pixel*Frame) : 0.147<br>
Stream size : 2.11 GiB (98%)<br>
Default : Yes<br>
Forced : No<br>
Color range : Limited<br>
Color primaries : BT.709<br>
Transfer characteristics : BT.709<br>
Matrix coefficients : BT.709<br>
<br>
Audio<br>
ID : 2<br>
Format : AAC LC<br>
Format/Info : Advanced Audio Codec Low Complexity<br>
Codec ID : A_AAC-2<br>
Duration : 41 min 28 s<br>
Bit rate : 125 kb/s<br>
Channel(s) : 2 channels<br>
Channel layout : L R<br>
Sampling rate : 48.0 kHz<br>
Frame rate : 46.875 FPS (1024 SPF)<br>
Compression mode : Lossy<br>
Stream size : 37.2 MiB (2%)<br>
Language : English<br>
Default : Yes<br>
Forced : No<br>
<br>
Text<br>
ID : 3<br>
Format : UTF-8<br>
Codec ID : S_TEXT/UTF8<br>
Codec ID/Info : UTF-8 Plain Text<br>
Duration : 41 min 22 s<br>
Bit rate : 110 b/s<br>
Count of elements : 947<br>
Stream size : 33.5 KiB (0%)<br>
Title : SDH<br>
Language : English<br>
Default : No<br>
Forced : No<br>
<br>
Menu<br>
00:00:00.000 : en:Scene 1<br>
00:01:30.090 : en:Intro<br>
00:01:48.483 : en:intro_end / en:Scene 2<br>
00:13:01.490 : en:Scene 3<br>
00:19:22.037 : en:Scene 4<br>
00:26:24.293 : en:Scene 5<br>
00:35:33.091 : en:Scene 6<br>
00:40:28.679 : en:Credits</div>
</div><br>
Screenshots:<br>
<img src="https://ptpimg.me/11bh37.jpg" class="bbCodeImage LbImage" alt="[​IMG]" data-url="https://ptpimg.me/11bh37.jpg" style=""> <br>
<br>
<div class="bbCodeBlock bbCodeVfcHH HiddenContent">
<div class="attribution type">Hidden Content:</div>
<blockquote>You must either reply or click 'Like' to see the hidden information contained here.</blockquote>
</div>
<div class="messageTextEndMarker">&nbsp;</div>
</blockquote>
</article>]]></description>
                <author><![CDATA[LazyRips]]></author>
                </item>

                </channel></rss>